<svg xmlns="http://www.w3.org/2000/svg" viewBox="0 0 228.56 176.82"><defs><style>.cls-1{fill:#203fa0;}</style></defs><title>logo</title><g id="Layer_2" data-name="Layer 2"><g id="Layer_1-2" data-name="Layer 1"><path d="M4.37,175.17A4.37,4.37,0,0,1,0,170.8V4.88A4.37,4.37,0,0,1,4.37.51H61.81c30.25,0,47.59,17.85,47.59,49a50.21,50.21,0,0,1-7.2,26.65,4.37,4.37,0,0,1-7.41-4.62,41.59,41.59,0,0,0,5.88-22c0-18.35-6.74-40.24-38.86-40.24H8.74V170.8A4.37,4.37,0,0,1,4.37,175.17Z"/><path d="M63.36,153.4H26.6A4.37,4.37,0,0,1,22.24,149V27.21a4.37,4.37,0,0,1,4.36-4.37H58.07a26.86,26.86,0,0,1,23.21,13C86.82,45,86.6,56.74,80.69,68A4.37,4.37,0,0,1,73,63.89c4.45-8.45,4.76-17,.84-23.52a18.17,18.17,0,0,0-15.73-8.79H31V144.66H63.36c12,0,19.82-7.51,19.82-19.15,0-13.75-7.88-22-21.08-22H49a4.37,4.37,0,0,1,0-8.74H62.1c18.11,0,29.82,12,29.82,30.7C91.92,141.93,80.18,153.4,63.36,153.4Z"/><circle class="cls-1" cx="48.66" cy="79.58" r="4.36"/><path class="cls-1" d="M110.61,134.05a4.37,4.37,0,0,1-3.24-7.3l106.88-118H109.34a4.37,4.37,0,0,1,0-8.74H224.09a4.37,4.37,0,0,1,3.24,7.3L113.85,132.61A4.37,4.37,0,0,1,110.61,134.05Z"/><path d="M224.09,176.82H107.47a4.37,4.37,0,0,1-3.25-7.29L221,39.79a4.37,4.37,0,0,1,6.49,5.84L117.28,168.08H224.09a4.37,4.37,0,1,1,0,8.74Z"/><path d="M211,154H150.89a4.37,4.37,0,1,1,0-8.73H211a4.37,4.37,0,1,1,0,8.73Z"/><path d="M179.5,30.12H127a4.37,4.37,0,0,1,0-8.74h52.5a4.37,4.37,0,1,1,0,8.74Z"/><circle cx="224.1" cy="149.68" r="4.36"/><path class="cls-1" d="M60.57,176.82h-34a4.37,4.37,0,0,1,0-8.74h34c17.07,0,45.71-5.84,45.71-45C106.28,105,95.24,84,64.1,84a4.37,4.37,0,0,1,0-8.73c16.9,0,30.6,5.56,39.64,16.08,9.82,11.42,11.28,24.83,11.28,31.8C115,157.24,95.17,176.82,60.57,176.82Z"/></g></g></svg>